<?xml version="1.0" standalone="no"?>
<!DOCTYPE svg PUBLIC "-//W3C//DTD SVG 20010904//EN"
 "http://www.w3.org/TR/2001/REC-SVG-20010904/DTD/svg10.dtd">
<svg version="1.0" xmlns="http://www.w3.org/2000/svg"
 width="512.000000pt" height="512.000000pt" viewBox="0 0 512.000000 512.000000"
 preserveAspectRatio="xMidYMid meet">
<metadata>
Created by potrace 1.15, written by Peter Selinger 2001-2017
</metadata>
<g transform="translate(0.000000,512.000000) scale(0.100000,-0.100000)"
fill="#000000" stroke="none">
<path d="M203 4958 c-174 -172 -196 -198 -191 -231 3 -19 32 5 192 163 103
102 192 193 197 203 8 14 5 17 -17 17 -21 0 -60 -33 -181 -152z"/>
<path d="M303 4858 c-140 -139 -264 -265 -275 -281 -10 -15 -18 -37 -16 -50 3
-18 49 23 292 263 158 157 292 293 297 303 8 14 5 17 -17 17 -22 0 -75 -47
-281 -252z"/>
<path d="M402 4758 c-194 -194 -362 -365 -373 -381 -11 -15 -19 -37 -17 -50 4
-18 67 40 392 363 213 212 392 393 397 403 8 14 5 17 -18 17 -22 0 -89 -62
-381 -352z"/>
<path d="M502 4658 c-249 -249 -462 -465 -473 -481 -11 -15 -19 -37 -17 -50 4
-18 84 57 492 463 268 267 492 493 497 503 8 14 5 17 -18 17 -22 0 -104 -76
-481 -452z"/>
<path d="M602 4558 c-304 -304 -562 -565 -573 -581 -11 -15 -19 -37 -17 -50 4
-18 101 75 592 563 323 322 592 593 597 603 8 14 5 17 -18 17 -23 0 -118 -91
-581 -552z"/>
<path d="M702 4458 c-359 -359 -662 -665 -673 -681 -11 -15 -19 -37 -17 -50 4
-18 118 92 692 663 378 377 692 693 697 703 8 14 5 17 -18 17 -23 0 -133 -106
-681 -652z"/>
<path d="M802 4358 c-414 -414 -762 -765 -773 -781 -11 -15 -19 -37 -17 -50 4
-18 136 109 792 763 433 432 792 793 797 803 8 14 5 17 -18 17 -23 0 -148
-120 -781 -752z"/>
<path d="M902 4258 c-469 -469 -862 -865 -873 -881 -11 -15 -19 -37 -17 -50 4
-18 153 126 892 863 488 487 892 893 897 903 8 14 5 17 -18 17 -23 0 -162
-135 -881 -852z"/>
<path d="M1002 4158 c-524 -524 -962 -965 -973 -981 -11 -15 -19 -37 -17 -50
4 -18 170 144 992 963 543 542 992 993 997 1003 8 14 5 17 -18 17 -23 0 -177
-149 -981 -952z"/>
<path d="M1102 4058 c-579 -579 -1062 -1065 -1073 -1081 -11 -15 -19 -37 -17
-50 4 -18 188 161 1092 1063 598 597 1092 1093 1097 1103 8 14 5 17 -18 17
-23 0 -191 -164 -1081 -1052z"/>
<path d="M2166 4921 c-170 -167 -197 -190 -244 -206 -43 -14 -60 -26 -87 -64
-19 -25 -37 -59 -41 -76 -4 -23 -221 -245 -895 -920 -744 -745 -889 -895 -889
-918 0 -15 3 -27 7 -27 4 0 397 388 872 863 475 474 861 855 859 847 -3 -8
-15 -49 -28 -90 l-23 -75 -365 -367 c-303 -304 -373 -370 -411 -384 -88 -33
-143 -66 -189 -112 -48 -50 -92 -131 -92 -172 0 -19 -73 -98 -315 -340 -257
-258 -315 -321 -315 -343 0 -15 3 -27 7 -27 4 0 146 138 315 307 l308 308 0
-65 0 -64 -315 -316 c-257 -258 -315 -321 -315 -343 0 -15 3 -27 7 -27 4 0
146 138 315 307 l308 308 0 -65 0 -64 -315 -316 c-257 -258 -315 -321 -315
-343 0 -15 3 -27 7 -27 4 0 146 138 315 307 l308 308 0 -65 0 -64 -315 -316
c-257 -258 -315 -321 -315 -343 0 -15 3 -27 7 -27 4 0 146 138 315 307 l308
308 0 -65 0 -64 -315 -316 c-257 -258 -315 -321 -315 -343 0 -15 3 -27 7 -27
4 0 146 138 315 307 l308 308 0 -65 0 -64 -315 -316 c-257 -258 -315 -321
-315 -343 0 -15 3 -27 7 -27 4 0 146 138 315 307 l308 308 0 -65 0 -64 -315
-316 c-257 -258 -315 -321 -315 -343 0 -15 3 -27 7 -27 4 0 146 138 315 307
l308 308 0 -65 0 -64 -315 -316 c-257 -258 -315 -321 -315 -343 0 -15 3 -27 7
-27 4 0 146 138 315 307 l308 308 0 -65 0 -64 -315 -316 c-257 -258 -315 -321
-315 -343 0 -15 3 -27 7 -27 4 0 146 138 315 307 l308 308 0 -65 0 -64 -315
-316 c-257 -258 -315 -321 -315 -343 0 -15 3 -27 7 -27 4 0 146 138 315 307
l308 308 0 -65 0 -64 -315 -316 c-257 -258 -315 -321 -315 -343 0 -15 3 -27 7
-27 4 0 146 138 315 307 l308 308 0 -65 0 -64 -315 -316 c-257 -258 -315 -321
-315 -343 0 -15 3 -27 7 -27 4 0 146 138 315 307 l308 308 0 -65 0 -64 -315
-316 c-257 -258 -315 -321 -315 -343 0 -15 3 -27 7 -27 4 0 148 140 320 312
258 258 313 308 319 292 3 -10 11 -32 16 -47 11 -28 5 -35 -300 -341 -172
-171 -312 -315 -312 -319 0 -4 12 -7 27 -7 22 0 83 56 325 297 l298 297 32
-32 33 -32 -258 -258 c-141 -142 -257 -261 -257 -265 0 -4 12 -7 27 -7 21 0
75 49 279 251 l252 252 46 -19 45 -19 -224 -225 c-124 -125 -225 -229 -225
-233 0 -4 12 -7 27 -7 21 0 72 46 258 230 l231 230 64 0 64 0 -222 -223 c-122
-123 -222 -226 -222 -230 0 -4 12 -7 27 -7 21 0 72 46 258 230 l231 230 64 0
64 0 -222 -223 c-122 -123 -222 -226 -222 -230 0 -4 12 -7 27 -7 21 0 72 46
258 230 l231 230 64 0 64 0 -222 -223 c-122 -123 -222 -226 -222 -230 0 -4 12
-7 27 -7 21 0 72 46 258 230 l231 230 64 0 64 0 -222 -223 c-122 -123 -222
-226 -222 -230 0 -4 12 -7 27 -7 21 0 72 46 258 230 l231 230 64 0 64 0 -222
-223 c-122 -123 -222 -226 -222 -230 0 -4 12 -7 27 -7 21 0 72 46 258 230
l231 230 64 0 64 0 -222 -223 c-122 -123 -222 -226 -222 -230 0 -4 12 -7 27
-7 21 0 72 46 258 230 l231 230 64 0 64 0 -222 -223 c-122 -123 -222 -226
-222 -230 0 -4 12 -7 27 -7 21 0 72 46 258 230 l231 230 64 0 64 0 -222 -223
c-122 -123 -222 -226 -222 -230 0 -4 12 -7 27 -7 21 0 72 46 258 230 l231 230
64 0 64 0 -222 -223 c-122 -123 -222 -226 -222 -230 0 -4 12 -7 27 -7 21 0 72
46 258 230 l231 230 64 0 64 0 -222 -223 c-122 -123 -222 -226 -222 -230 0 -4
12 -7 27 -7 21 0 72 46 258 230 l231 230 64 0 64 0 -222 -223 c-122 -123 -222
-226 -222 -230 0 -4 12 -7 27 -7 21 0 72 46 258 230 l231 230 64 0 64 0 -222
-223 c-122 -123 -222 -226 -222 -230 0 -4 12 -7 27 -7 21 0 72 46 258 230
l231 230 64 0 64 0 -222 -223 c-122 -123 -222 -226 -222 -230 0 -4 12 -7 27
-7 21 0 72 46 258 230 l231 230 64 0 64 0 -222 -223 c-122 -123 -222 -226
-222 -230 0 -4 12 -7 27 -7 21 0 72 46 258 230 l231 230 64 0 64 0 -222 -223
c-122 -123 -222 -226 -222 -230 0 -4 12 -7 27 -7 21 0 72 46 258 230 200 199
235 230 261 230 17 0 53 7 79 15 48 14 47 13 -191 -227 -202 -205 -236 -243
-217 -246 13 -2 35 6 50 17 16 11 335 327 711 703 568 569 682 688 682 711 0
15 -3 27 -7 27 -4 0 -189 -181 -411 -402 -362 -362 -401 -399 -387 -359 8 24
15 60 15 79 0 34 22 58 395 432 325 325 395 401 395 423 0 15 -3 27 -7 27 -4
0 -182 -174 -395 -387 l-388 -388 0 65 0 64 395 396 c325 325 395 401 395 423
0 15 -3 27 -7 27 -4 0 -182 -174 -395 -387 l-388 -388 0 65 0 64 395 396 c325
325 395 401 395 423 0 15 -3 27 -7 27 -4 0 -182 -174 -395 -387 l-388 -388 0
65 0 64 395 396 c325 325 395 401 395 423 0 15 -3 27 -7 27 -4 0 -182 -174
-395 -387 l-388 -388 0 65 0 64 395 396 c325 325 395 401 395 423 0 15 -3 27
-7 27 -4 0 -182 -174 -395 -387 l-388 -388 0 65 0 64 395 396 c325 325 395
401 395 423 0 15 -3 27 -7 27 -4 0 -182 -174 -395 -387 l-388 -388 0 65 0 64
395 396 c325 325 395 401 395 423 0 15 -3 27 -7 27 -4 0 -182 -174 -395 -387
l-388 -388 0 65 0 64 395 396 c325 325 395 401 395 423 0 15 -3 27 -7 27 -4 0
-182 -174 -395 -387 l-388 -388 0 65 0 64 395 396 c325 325 395 401 395 423 0
15 -3 27 -7 27 -4 0 -182 -174 -395 -387 l-388 -388 0 65 0 64 395 396 c325
325 395 401 395 423 0 15 -3 27 -7 27 -4 0 -182 -174 -395 -387 l-388 -388 0
65 0 64 395 396 c325 325 395 401 395 423 0 15 -3 27 -7 27 -4 0 -182 -174
-395 -387 l-388 -388 0 65 0 64 395 396 c325 325 395 401 395 423 0 15 -3 27
-7 27 -4 0 -182 -174 -395 -387 l-388 -388 0 65 0 64 395 396 c325 325 395
401 395 423 0 15 -3 27 -7 27 -4 0 -182 -174 -394 -387 l-387 -386 -16 38 c-9
20 -16 42 -16 48 0 7 185 196 410 422 337 338 410 416 410 438 0 15 -3 27 -7
27 -4 0 -195 -187 -424 -417 l-418 -416 -34 29 -35 29 459 460 c382 383 459
466 459 488 0 23 -3 26 -17 18 -10 -5 -226 -218 -481 -473 l-463 -464 -49 15
-49 16 529 530 c439 440 530 535 530 558 0 15 -3 27 -7 27 -4 0 -259 -251
-567 -557 -307 -307 -556 -553 -554 -548 3 6 29 60 57 120 l52 110 510 510
c424 426 509 515 509 538 0 23 -3 26 -17 18 -10 -5 -229 -221 -488 -480 l-470
-471 -12 53 -12 52 500 500 c416 417 499 505 499 528 0 23 -3 26 -17 18 -10
-5 -241 -233 -513 -505 -272 -273 -498 -496 -502 -496 -4 0 -23 11 -42 23
l-34 24 490 489 c269 269 494 497 499 507 8 14 5 17 -18 17 -23 0 -110 -83
-524 -496 l-496 -496 -43 22 -43 22 467 467 c256 256 466 470 466 474 0 4 -12
7 -27 7 -22 0 -108 -81 -493 -464 l-465 -465 -42 22 -43 22 426 425 c234 234
430 433 435 443 8 14 5 17 -18 17 -22 0 -100 -73 -459 -431 l-431 -431 -43 22
-43 22 402 402 c220 221 401 405 401 409 0 4 -12 7 -27 7 -22 0 -98 -71 -427
-399 l-401 -400 -42 22 -43 22 361 360 c198 198 365 368 370 378 8 14 5 17
-18 17 -22 0 -91 -64 -394 -366 l-366 -366 -43 22 -43 22 337 337 c185 185
336 340 336 344 0 4 -12 7 -27 7 -22 0 -89 -61 -362 -333 l-336 -334 -43 21
-42 21 296 295 c162 162 300 303 305 313 8 14 5 17 -17 17 -23 0 -82 -54 -330
-301 l-301 -301 -43 22 -43 22 272 272 c149 149 271 275 271 279 0 4 -12 7
-27 7 -21 0 -78 -51 -293 -265 -146 -146 -270 -265 -276 -265 -6 0 -27 8 -47
18 l-37 18 231 229 c127 127 235 238 240 248 8 14 5 17 -17 17 -22 0 -72 -45
-264 -236 l-238 -236 -42 22 -43 22 207 207 c113 114 206 210 206 214 0 4 -12
7 -26 7 -22 0 -68 -41 -229 -200 -110 -110 -205 -200 -211 -200 -5 0 -26 8
-46 18 l-36 19 165 164 c90 90 169 172 174 182 8 14 5 17 -17 17 -21 0 -63
-36 -199 -171 l-173 -171 -42 22 -42 22 141 142 c77 78 141 146 141 149 0 4
-12 7 -26 7 -20 0 -58 -32 -165 -137 l-139 -137 -65 0 -64 -1 129 131 c72 72
130 134 130 137 0 4 -12 7 -27 7 -21 0 -69 -43 -238 -210 l-211 -210 -48 16
-48 17 186 186 c102 103 186 190 186 194 0 4 -12 7 -26 7 -21 0 -67 -40 -218
-189z m549 -382 c160 -77 308 -149 330 -159 22 -10 240 -116 485 -234 402
-194 445 -217 443 -238 -1 -18 -182 -398 -371 -778 l-27 -55 -122 -3 c-68 -1
-123 0 -123 3 0 3 45 99 100 213 55 114 100 220 100 235 0 30 -15 46 -81 86
-74 45 -111 159 -75 229 19 37 21 82 4 105 -7 9 -134 75 -282 147 -320 156
-320 156 -378 69 -55 -84 -156 -122 -228 -85 -54 26 -93 30 -118 9 -12 -10
-129 -241 -260 -513 l-239 -495 -121 -3 c-74 -2 -122 1 -122 7 0 5 67 148 149
318 365 755 560 1163 586 1221 18 40 34 62 44 62 9 0 147 -63 306 -141z m-638
1 c31 -10 59 -22 60 -27 3 -9 -503 -1061 -519 -1078 -6 -7 -7 -5 -4 5 3 8 45
146 95 305 197 640 244 791 253 808 10 19 15 18 115 -13z m-444 -492 l-26 -86
-211 -210 -211 -210 -68 -4 -68 -4 303 303 c166 166 303 301 304 300 2 -1 -9
-41 -23 -89z m1562 -176 c15 -8 18 -24 19 -103 1 -82 5 -101 29 -146 15 -29
45 -71 67 -94 22 -23 40 -47 39 -53 0 -6 -44 -99 -97 -206 l-97 -195 -117 -3
-118 -3 0 40 c0 62 -20 142 -45 187 -129 223 -405 159 -599 -139 l-57 -87 -85
0 c-61 0 -84 3 -84 13 0 6 90 196 199 422 l198 409 99 1 c87 0 105 3 149 26
28 15 70 45 95 66 l44 40 172 -82 c94 -46 179 -87 189 -93z m-1652 -112 c-23
-77 -32 -91 -92 -152 l-65 -68 -66 0 -65 0 155 155 c85 85 155 153 157 152 1
-2 -10 -41 -24 -87z m-467 -529 l-140 -140 -35 15 c-20 8 -39 18 -44 23 -4 4
46 60 111 124 l119 117 64 0 64 0 -139 -139z m194 -6 l-145 -145 -65 0 -65 0
145 145 145 145 65 0 65 0 -145 -145z m2845 105 l29 -30 -109 -110 -110 -110
-65 0 -65 0 140 140 c77 77 142 140 145 140 4 0 19 -14 35 -30z m-1402 -71
c27 -21 57 -99 57 -150 0 -24 -5 -28 -37 -33 -21 -3 -102 -5 -180 -5 -115 1
-143 3 -143 15 0 25 120 142 173 168 62 31 96 33 130 5z m-1688 -338 c60 -4
786 -7 1611 -5 826 1 1508 -2 1515 -7 11 -7 15 -65 17 -304 l3 -295 -698 0
c-681 0 -699 -1 -743 -21 -58 -26 -96 -63 -126 -121 -24 -47 -24 -51 -24 -325
0 -153 5 -294 10 -314 14 -51 76 -118 134 -145 l51 -24 698 0 698 0 -3 -308
-3 -309 -27 -40 c-16 -25 -44 -49 -71 -62 l-44 -21 -1550 2 -1551 3 -39 31
c-67 55 -78 83 -82 222 l-3 122 450 0 451 0 20 26 c12 15 21 33 21 40 0 26
-23 62 -47 73 -16 7 -161 11 -458 11 l-435 0 0 908 0 909 57 -19 c33 -11 104
-23 168 -27z m3145 -1086 l0 -325 -691 0 -691 0 -29 29 -29 29 0 267 0 267 29
29 29 29 691 0 691 0 0 -325z"/>
<path d="M1910 1137 c-14 -7 -28 -26 -34 -45 -7 -27 -6 -38 11 -60 28 -38 104
-44 139 -11 32 30 31 73 -1 104 -27 28 -74 33 -115 12z"/>
<path d="M3039 2016 c-59 -21 -96 -53 -123 -108 -34 -67 -33 -119 0 -187 45
-90 142 -136 234 -112 65 17 106 49 137 106 63 116 8 257 -116 300 -54 18 -84
18 -132 1z"/>
<path d="M4496 650 c-339 -338 -622 -623 -627 -632 -8 -15 -5 -18 18 -18 23 0
123 95 611 583 321 320 592 594 603 610 11 15 19 37 17 50 -4 18 -106 -80
-622 -593z"/>
<path d="M4596 550 c-284 -283 -522 -523 -527 -533 -8 -14 -5 -17 18 -17 23 0
108 81 511 483 266 265 492 494 503 510 11 15 19 37 17 50 -4 18 -89 -62 -522
-493z"/>
<path d="M4696 450 c-229 -228 -422 -423 -427 -432 -8 -15 -5 -18 18 -18 22 0
93 66 411 383 211 210 392 394 403 410 11 15 19 37 17 50 -4 18 -72 -45 -422
-393z"/>
<path d="M4796 350 c-174 -173 -322 -323 -327 -332 -8 -15 -5 -18 17 -18 23 0
80 52 312 282 156 156 293 295 303 311 11 15 19 37 17 50 -4 18 -54 -28 -322
-293z"/>
<path d="M4896 250 c-119 -118 -222 -223 -227 -232 -8 -15 -5 -18 17 -18 21 0
65 37 211 183 205 202 226 227 221 260 -3 19 -37 -11 -222 -193z"/>
<path d="M4996 150 c-136 -133 -149 -150 -111 -150 18 0 49 23 111 82 102 98
127 130 122 161 -3 19 -19 7 -122 -93z"/>
</g>
</svg>
